<svg width="259" height="424" viewBox="0 0 259 424" fill="none" xmlns="http://www.w3.org/2000/svg">
<path d="M52.8596 173.743L67.9244 184.322L79.8508 186.526L93.0325 184.322M18.9637 175.569L12.6867 186.526M31.5177 142.701L22.1022 160.352L16.4529 168.192V173.743L23.9853 178.004H31.5177L43.4441 179.83L50.3488 178.004" stroke="#ADBAFE" stroke-opacity="0.87"/>
<path d="M12.6335 121.25L21.443 91.5716H78.7048L108.28 104.896V132.758L132.82 163.041L135.337 156.379L143.517 152.745L148.544 163.041V173.253V180.736L139.086 193.931L135.337 199.382H129.674L123.381 193.931L107.65 218.763L91.9191 230.271L73.6708 236.934L56.0519 243.596C49.1302 245.413 38.433 245.413 28.3648 243.596C21.1724 238.733 20.829 231.733 19.5555 220.581C18.3078 211.04 17.0385 207.256 12.6335 199.382L3.19479 186.057C-0.719991 177.664 1.3071 170.915 3.8241 160.013L10.1165 140.631L7.59954 129.123L12.6335 121.25Z" stroke="#ADBAFE" stroke-opacity="0.87"/>
<path d="M49.2472 249.759L52.6968 255.707M52.6968 255.707L56.1464 261.654L62.4185 282.941L98.7964 255.707L134.547 217.203L142.701 249.759L95.0331 309.862L66.8089 353.061L56.1464 290.453L27.295 338.661L49.2472 261.654L52.6968 255.707Z" stroke="#ADBAFE" stroke-opacity="0.87"/>
<path d="M22.9125 87.1891C22.9125 81.5128 23.5231 74.0921 25.9923 69.164C29.8288 61.507 32.7679 48.946 38.6445 43.0816C49.4203 32.3283 66.882 34.8582 81.3458 34.8582" stroke="#ADBAFE" stroke-opacity="0.87" stroke-linecap="round"/>
<path d="M41.9033 84.2674C56.1816 70.318 66.26 55.9851 69.6591 36.06" stroke="#ADBAFE" stroke-opacity="0.87" stroke-linecap="round"/>
<path d="M60.8941 84.2674C80.355 83.3828 90.1107 65.4685 90.1107 47.7466" stroke="#ADBAFE" stroke-opacity="0.87" stroke-linecap="round"/>
<path d="M79.8849 91.5716C90.5856 91.5716 101.365 90.5373 110.266 83.9631C114.649 80.7259 120.46 76.2425 125.624 74.7484C132.969 72.6226 132.468 61.028 132.468 55.0508" stroke="#ADBAFE" stroke-opacity="0.87" stroke-linecap="round"/>
<path d="M97.5468 36.7508C97.5468 22.303 96.3406 14.6588 109.591 5.6598C134.709 -11.3986 162.847 22.0261 158.278 47.0581C156.943 54.3749 157.745 59.8388 150.644 63.7865C141.517 68.8606 125.176 67.37 118.837 59.4777C108.92 47.1304 110.379 34.4215 94.4933 29.147" stroke="#ADBAFE" stroke-opacity="0.87" stroke-linecap="round"/>
<path d="M93.0325 30.2167C100.042 36.9489 108.002 40.1896 116.041 44.4813C119.977 46.5825 121.875 52.8106 123.71 56.5117" stroke="#ADBAFE" stroke-opacity="0.87" stroke-linecap="round"/>
<path d="M119.327 31.6775C124.788 31.1315 129.79 30.2167 135.396 30.2167" stroke="#ADBAFE" stroke-opacity="0.87" stroke-linecap="round"/>
<path d="M123.71 18.6657C129.271 18.6657 134.252 17.3507 137.669 22.9076C141.968 29.8991 144.162 41.023 144.162 49.2075" stroke="#ADBAFE" stroke-opacity="0.87" stroke-linecap="round"/>
<path d="M147.083 72.5808C157.542 78.2455 160.732 99.8714 167.603 109.726C174.126 119.081 179.299 129.633 185.083 139.325C192.628 151.967 194.385 166.675 202.563 179.07C210.062 190.434 210.925 204.73 217.004 216.802C220.524 223.794 219.666 229.549 220.888 237.178C223.155 251.326 227.644 264.048 227.644 278.516C227.644 291.783 239.938 300.513 247.066 310.211C259.184 326.7 258.044 349.914 258.044 369.157C258.044 372.809 258.185 376.493 258.044 380.142C257.906 383.708 253.197 387.369 251.964 391.042" stroke="#ADBAFE" stroke-opacity="0.87" stroke-linecap="round"/>
<path d="M138.318 199.673C138.318 211.053 140.126 214.962 147.47 223.13C150.491 226.49 152.398 231.598 154.249 235.78C157.512 243.154 161.928 245.121 169.417 249.352C180.569 255.652 187.686 263.347 188.653 276.244C189.263 284.392 197.87 292.332 203.905 297.02C211.454 302.884 223.734 310.404 223.734 321.147C223.734 332.044 227.99 343.257 228.31 354.322C228.695 367.661 242.037 374.216 242.037 386.66" stroke="#ADBAFE" stroke-opacity="0.87" stroke-linecap="round"/>
<path d="M120.788 145.622C125.774 145.622 130.759 145.622 135.744 145.622C149.203 145.622 155.136 150.717 163.247 162.178C167.409 168.059 172.423 174.832 173.966 182.079C175.898 191.153 174.511 200.795 176.126 210.007C178.221 221.953 183.604 232.702 183.604 244.959" stroke="#ADBAFE" stroke-opacity="0.87" stroke-linecap="round"/>
<path d="M109.102 117.867C118.621 121.292 133.422 124.965 143.621 121.227C157.855 116.012 166.548 126.796 171.804 139.376C179.826 158.575 193.638 176.024 199.82 195.671C202.125 202.996 203.544 212.242 207.157 219.029C212 228.123 217.514 235.99 218.664 246.42" stroke="#ADBAFE" stroke-opacity="0.87" stroke-linecap="round"/>
<path d="M106.18 103.18C119.19 103.18 120.377 86.3795 126.191 78.0492C130.347 72.0942 145.283 78.0418 149.674 81.118C165.154 91.9622 169.242 109.124 172.331 127.149C174.266 138.442 176.289 149.294 179.773 160.242C181.401 165.358 184.191 169.58 185.065 174.839" stroke="#ADBAFE" stroke-opacity="0.87" stroke-linecap="round"/>
<path d="M193.83 237.655C198.502 249.02 200.595 261.668 204.223 273.432C206.198 279.839 213.26 286.525 218.245 290.903C227.238 298.802 235.982 307.638 240.598 319.074C247.48 336.124 250.325 354.292 256.517 371.235C257.762 374.641 259.516 386.434 256.187 388.121" stroke="#ADBAFE" stroke-opacity="0.87" stroke-linecap="round"/>
<path d="M74.0416 90.1108C81.9246 86.406 90.0197 83.3764 98.274 80.6022C101.224 79.6108 105.36 78.895 107.683 76.575C110.881 73.3811 113.558 69.5237 111.006 65.2766" stroke="#ADBAFE" stroke-opacity="0.87" stroke-linecap="round"/>
<path d="M33.1382 87.1891C33.1382 71.9884 38.1051 58.6282 47.5477 46.2858C52.5251 39.7798 59.1958 32.0178 66.71 28.2531C71.1966 26.0053 76.4172 25.8341 81.3457 25.8341" stroke="#ADBAFE" stroke-opacity="0.87" stroke-linecap="round"/>
<path d="M95.8957 31.8739C94.9685 31.8739 89.9488 31.2462 89.3824 32.2349C88.4781 33.8134 88.3896 36.1232 89.2377 37.7211C90.6566 40.3946 96.1462 43.1618 98.6458 45.1564C101.004 47.0384 101.449 51.0828 104.074 52.9526C107.123 55.1256 110.12 56.8799 113.482 58.511C118.891 61.1361 120.402 66.1961 124.916 69.8805C126.025 70.785 136.857 75.3602 136.857 73.6704C136.857 71.3285 135.328 69.8733 133.963 68.2563C133.163 67.309 133.877 66.6182 132.37 66.1629C131.094 65.7772 129.895 65.4477 128.788 64.6831C126.208 62.901 122.292 60.8466 121.334 57.5004C120.239 53.6786 116.146 51.011 115.436 47.4664" stroke="#ADBAFE" stroke-opacity="0.87" stroke-linecap="round"/>
<path d="M94.5331 33.8852C94.5331 36.3615 99.1514 42.8632 99.1514 37.8316C99.1514 34.654 99.5563 34.2624 96.659 33.3736C95.2789 32.9502 93.4689 33.2274 92.0408 33.2274C85.8435 33.2274 96.3813 40.7617 98.345 41.6318C100.42 42.5515 105.089 47.4674 105.089 42.0703C105.089 40.3604 102.418 33.735 100.764 33.264C99.0769 32.7834 99.776 39.4253 99.8478 40.4991C100.091 44.1386 103.231 48.1889 106.152 50.2555C108.392 51.8405 111.346 53.091 113.959 53.9096C115.486 54.3881 119.782 56.0613 118.651 54.9328C116.262 52.5513 110.651 51.5174 107.581 49.5247C106.291 48.687 105.184 47.5894 104.429 46.236C102.806 43.3231 112.719 46.6572 113.373 46.8937C118.635 48.7985 124.001 53.6577 125.871 58.8792C126.759 61.3571 128.761 63.8092 131.149 65.0911C131.462 65.2591 134.888 67.1739 133.678 67.3932C131.633 67.7639 127.873 68.5563 125.834 68.0144C120.741 66.6603 114.118 60.1033 110.33 56.6867C106.506 53.2373 100.838 43.8119 111.467 48.9035C118.539 52.2918 123.298 57.5933 128.547 62.8256C129.344 63.6207 131.406 64.8804 131.479 66.1143C131.61 68.343 128.074 67.4298 126.494 67.4298C123.337 67.4298 121.322 65.6472 119.933 63.1545C114.273 52.9972 108.997 42.7075 101.131 33.8852" stroke="#ADBAFE" stroke-opacity="0.87" stroke-width="3" stroke-linecap="round"/>
<path d="M70.8936 128.092L49.2074 132.637L51.1209 136.046L65.1531 134.342H77.2719L94.4932 138.318L77.2719 128.092H70.8936Z" stroke="#ADBAFE" stroke-opacity="0.87"/>
<path d="M12.6867 120.788L14.0147 122.04L27.295 130.179L25.303 133.936" stroke="#ADBAFE" stroke-opacity="0.87"/>
<path d="M24.3733 133.936L14.6345 128.092H9.76501" stroke="#ADBAFE" stroke-opacity="0.87"/>
<path d="M19.9908 196.002L35.3959 199.186H62.3549M19.9908 196.002L27.6934 206.828L39.8891 207.464L62.3549 199.186M19.9908 196.002L27.6934 190.908L33.4703 192.819L40.531 190.908L62.3549 199.186M19.9908 196.002L22.5583 208.738L27.6934 215.106L40.531 215.742L62.3549 199.186" stroke="#ADBAFE" stroke-opacity="0.87"/>
<path d="M56.5116 147.083C57.759 147.207 59.0558 147.879 60.2344 147.926C61.1984 147.964 60.7574 148.35 61.4125 148.721C61.8037 148.943 62.4098 148.568 62.779 148.862C63.3741 149.335 65.0351 149.526 65.8421 149.611C67.0801 149.74 68.0747 150.874 69.235 150.874C71.0284 150.874 82.8066 152.452 82.8066 150.453" stroke="#ADBAFE" stroke-opacity="0.87" stroke-linecap="round"/>
<path d="M59.4333 143.053C64.4993 143.053 69.519 142.247 74.523 143.073C76.4264 143.387 79.963 146.424 80.7369 147.829C81.5591 149.322 81.1809 149.267 82.8066 150.005" stroke="#ADBAFE" stroke-opacity="0.87" stroke-linecap="round"/>
<path d="M25.8342 139.779C22.7585 139.601 20.5655 138.436 17.5647 138.436C15.7387 138.436 10.4881 137.864 9.76501 139.242" stroke="#ADBAFE" stroke-opacity="0.87" stroke-linecap="round"/>
<path d="M25.8342 144.16C23.9059 144.16 20.9979 145.622 18.7637 145.622C16.3328 145.622 12.3204 142.701 9.76501 142.701" stroke="#ADBAFE" stroke-opacity="0.87" stroke-linecap="round"/>
<path d="M14.1474 144.162C13.0178 144.221 11.7712 144.592 10.7156 144.838C10.1439 144.971 8.65461 145.418 8.30408 145.622" stroke="#ADBAFE" stroke-opacity="0.87" stroke-linecap="round"/>
<path d="M60.8961 148.544C60.8961 150.173 60.7131 150.186 63.8158 149.789" stroke="#ADBAFE" stroke-opacity="0.87" stroke-linecap="round"/>
<path d="M65.2766 150.005C65.2766 153.399 66.7094 152.901 68.1983 152.901" stroke="#ADBAFE" stroke-opacity="0.87" stroke-linecap="round"/>
<path d="M71.1199 151.466C71.7267 151.617 71.5837 152.927 72.5808 152.927" stroke="#ADBAFE" stroke-opacity="0.87" stroke-linecap="round"/>
<path d="M75.5024 152.927C75.6314 153.942 77.459 154.387 78.4241 154.387" stroke="#ADBAFE" stroke-opacity="0.87" stroke-linecap="round"/>
<path d="M78.4241 152.927C80.0716 152.927 81.3002 152.927 82.8066 152.927" stroke="#ADBAFE" stroke-opacity="0.87" stroke-linecap="round"/>
<path d="M14.1474 144.162C12.1444 144.162 10.3114 144.162 8.30408 144.162" stroke="#ADBAFE" stroke-opacity="0.87" stroke-linecap="round"/>
<path d="M14.1475 144.162C13.8534 144.25 12.9631 146.42 12.6867 147.083" stroke="#ADBAFE" stroke-opacity="0.87" stroke-linecap="round"/>
<path d="M81.3458 180.65C85.1543 178.586 94.1038 177.358 99.0633 176.439C108.005 174.782 92.5866 185.729 91.3565 187.063C90.6295 187.851 88.7736 190.33 86.4306 189.12C82.1366 186.904 89.5221 179.947 91.9921 178.162C101.232 171.483 96.1949 189.02 93.4223 188.498C87.5463 187.392 104.933 167.319 114.794 168.639C116.962 168.929 117.025 178.818 112.49 178.928C109.252 179.006 109.948 177.28 109.948 175.865C109.948 173.062 111.975 173.31 114.238 171.606C119.71 167.486 119.959 176.214 119.959 173.759C119.959 170.913 111.381 187.157 106.452 180.172C103.985 176.675 102.263 168.757 107.088 165.528C110.939 162.951 109.68 173.682 109.63 174.046C108.9 179.421 102.387 189.424 104.386 177.683C105.299 172.325 113.597 168.459 120.118 165.337C125.749 162.641 118.531 168.281 117.734 169.165C113.205 174.193 111.119 178.543 102.956 181.894C95.3996 184.998 96.5842 179.101 97.9509 175.626C98.225 174.929 102.648 169.184 102.797 172.419C102.943 175.577 103.728 179.45 101.367 182.373C100.154 183.876 97.5284 186.441 94.1373 185.675C86.9819 184.059 90.603 175.801 92.8661 172.802C93.2399 172.307 99.2141 166.867 99.6194 167.634C100.985 170.22 97.5182 174.089 95.6469 176.343" stroke="#ADBAFE" stroke-opacity="0.1" stroke-width="2" stroke-linecap="round"/>
<path d="M9.76501 139.779C12.3126 139.902 14.7029 140.263 17.3236 140.263C19.9525 140.263 17.6907 141.21 16.1464 141.231C14.5777 141.251 13.0069 141.231 11.4378 141.231" stroke="#ADBAFE" stroke-opacity="0.17" stroke-width="2" stroke-linecap="round"/>
<path d="M74.0416 147.373C71.4916 147.373 70.0002 148.504 67.5704 148.541C67.2183 148.546 62.2843 148.576 62.3557 148.281C62.7185 146.783 68.5267 147.373 69.738 147.373C70.8408 147.373 74.015 147.868 71.4029 146.79C68.871 145.744 65.9935 145.622 63.2982 145.622" stroke="#ADBAFE" stroke-opacity="0.17" stroke-width="2" stroke-linecap="round"/>
<path d="M24.3734 198.212C27.0867 198.776 29.4923 202.146 31.5152 203.678C35.505 206.7 30.8835 204.112 29.048 203.253C27.6646 202.606 26.5314 202.585 29.3726 202.585C31.8225 202.585 34.7671 202.738 36.7742 204.103C37.8678 204.847 36.1909 204.225 34.8913 204.225C32.9332 204.225 36.397 204.225 36.9365 204.225C38.7608 204.225 41.4093 202.564 43.2343 202.039C44.044 201.806 47.1129 201.183 44.5004 201.765C43.4982 201.988 40.4854 201.585 40.1828 202.858C39.686 204.95 41.6975 204.772 43.2992 204.772C46.4053 204.772 41.379 204.772 40.475 204.772C39.1115 204.772 37.7481 204.772 36.3846 204.772C34.8512 204.772 31.0951 202.189 31.1906 202.16C37.0226 200.414 43.859 202.039 49.4997 202.039C52.4362 202.039 48.6412 203.966 47.7467 204.346C46.4038 204.917 44.9749 204.772 43.5265 204.772C41.954 204.772 40.2342 205.112 38.9817 206.108C37.6309 207.182 36.3486 206.958 34.5992 206.958C33.4455 206.958 29.1783 204.787 28.4637 203.952C25.4593 200.439 32.9901 200.945 35.7354 200.945C36.3102 200.945 38.7623 200.637 38.9492 201.249C39.2435 202.213 41.0781 202.585 42.228 202.585C45.0414 202.585 47.8549 202.585 50.6683 202.585" stroke="#ADBAFE" stroke-opacity="0.17" stroke-width="2" stroke-linecap="round"/>
<path d="M75.8361 241.712C73.8934 241.712 69.5079 242.907 68.0659 244.354C65.886 246.542 71.231 245.772 72.6253 245.772C73.2149 245.772 76.3801 245.631 75.0013 245.869C73.5911 246.111 59.9995 249.973 59.4608 249.252C58.7133 248.252 73.45 243.999 74.7123 243.742C79.3049 242.806 84.1983 241.502 88.8721 241.132C89.4794 241.084 91.2033 240.432 90.606 240.552C86.9053 241.295 83.7703 242.876 80.2349 243.967C78.525 244.495 90.1806 237.966 90.6381 238.425C90.6943 238.481 82.7142 245.905 88.8721 240.487C91.8326 237.883 94.7465 234.772 98.1193 232.689C98.8481 232.239 100.592 231.819 99.1789 233.237C98.1701 234.25 89.2328 242.255 93.3031 237.201C94.8903 235.23 97.3476 233.531 99.8211 232.979C100.044 232.93 100.889 232.451 100.078 232.528C97.3097 232.793 94.5769 234.056 92.0187 235.042C89.1412 236.15 86.2814 237.146 83.2852 237.877C82.301 238.118 79.6343 239.025 80.2671 238.232C81.2503 236.998 86.1213 236.097 87.5236 235.461C91.2756 233.757 94.6994 231.415 98.2478 229.338C100.175 228.21 102.319 226.576 104.156 225.6C108.018 223.548 98.4497 244.235 103.995 231.755C105.214 229.011 106.788 226.582 108.426 224.086C109.217 222.88 110.589 219.638 110.385 223.087C110.198 226.247 109.357 235.694 109.357 232.528C109.357 228.926 111.462 222.908 114.045 220.316C115.021 219.336 121.106 214.429 117.128 217.738C116.685 218.106 110.38 223.44 110.898 220.316C111.498 216.706 114.693 213.736 117.128 211.293C117.631 210.788 123.612 204.65 123.678 204.849C124.483 207.274 117.771 211.518 116.357 213.001C116.068 213.305 114.887 215.17 114.366 215.096C113.696 215 121.289 205.221 121.815 204.655C121.955 204.505 126.632 201.165 126.632 200.241C126.632 198.213 122.937 202.271 120.916 202.271" stroke="#ADBAFE" stroke-opacity="0.17" stroke-width="2" stroke-linecap="round"/>
<path d="M72.5808 202.595C71.4052 204.03 71.2822 207.411 71.2822 209.226C71.2822 211.248 69.4724 213.558 68.3606 215.313C66.6861 217.957 64.4675 223.714 60.8941 224.507" stroke="#ADBAFE" stroke-opacity="0.17" stroke-width="2" stroke-linecap="round"/>
<path d="M14.1475 186.526C14.1475 183.957 15.6084 181.671 15.6084 179.222" stroke="#ADBAFE" stroke-opacity="0.17" stroke-width="2" stroke-linecap="round"/>
<path d="M39.1075 179.456C35.8543 179.456 26.2843 178.727 29.3549 179.84C31.8685 180.751 34.5315 180.95 37.068 181.607C38.2442 181.911 39.2122 183.179 40.4425 183.604" stroke="#ADBAFE" stroke-opacity="0.17" stroke-width="2" stroke-linecap="round"/>
<path d="M52.1292 133.936C53.2611 133.936 53.5266 132.475 55.0508 132.475" stroke="#ADBAFE" stroke-opacity="0.81" stroke-linecap="round"/>
<path d="M53.5899 135.397C57.6782 135.131 59.4333 133.405 59.4333 129.553" stroke="#ADBAFE" stroke-opacity="0.81" stroke-linecap="round"/>
<path d="M55.0508 133.936C56.2811 133.789 58.9045 132.021 59.4333 131.014" stroke="#ADBAFE" stroke-opacity="0.81" stroke-linecap="round"/>
<path d="M57.9725 133.936C59.1973 133.028 63.8158 132.504 63.8158 131.014" stroke="#ADBAFE" stroke-opacity="0.81" stroke-linecap="round"/>
<path d="M62.355 133.936C64.5285 132.441 67.1207 131.107 69.4941 129.896C70.442 129.412 72.2224 129.116 72.5808 128.092" stroke="#ADBAFE" stroke-opacity="0.81" stroke-linecap="round"/>
<path d="M66.7375 132.475C69.4051 131.074 70.9883 129.553 74.0416 129.553" stroke="#ADBAFE" stroke-opacity="0.81" stroke-linecap="round"/>
<path d="M71.1199 132.475C73.7273 132.08 76.298 131.153 78.784 130.324C79.3108 130.149 79.6572 129.99 79.8849 129.553" stroke="#ADBAFE" stroke-opacity="0.81" stroke-linecap="round"/>
<path d="M75.5024 132.475C77.9863 132.475 80.3656 132.475 82.8066 132.475" stroke="#ADBAFE" stroke-opacity="0.81" stroke-linecap="round"/>
<path d="M24.3733 132.475C23.4995 131.739 23.0003 129.854 21.4516 129.553" stroke="#ADBAFE" stroke-opacity="0.81" stroke-linecap="round"/>
<path d="M21.4516 131.014C21.3809 130.314 20.1257 128.801 19.6957 128.255C19.2226 127.654 18.8344 127.301 18.53 126.632" stroke="#ADBAFE" stroke-opacity="0.81" stroke-linecap="round"/>
<path d="M18.53 129.553C16.4139 127.847 12.6867 126.608 12.6867 123.71" stroke="#ADBAFE" stroke-opacity="0.81" stroke-linecap="round"/>
<path d="M17.0692 128.092C16.1245 126.903 14.6794 126.27 13.9193 125.189C13.6501 124.806 13.8603 124.257 13.7215 123.8C13.5147 123.119 12.8894 122.97 12.6867 122.249" stroke="#ADBAFE" stroke-opacity="0.81" stroke-linecap="round"/>
<path d="M12.6867 128.092C11.9602 127.983 11.5464 127.401 11.2259 126.632" stroke="#ADBAFE" stroke-opacity="0.81" stroke-linecap="round"/>
<path d="M99.5354 134.675C102.803 134.969 102.677 140.173 104.554 141.377C106.606 142.692 103.993 139.001 103.876 137.834C103.675 135.843 103.808 133.815 103.808 131.819C103.808 130.47 104.033 131.494 104.452 132.231C105.71 134.438 105.704 136.361 106.385 138.63C106.769 139.91 108.593 143.171 106.996 139.537C105.647 136.468 105.096 132.587 103.333 129.732C102.617 128.571 101.989 132.113 101.672 133.384C101.012 136.026 100.25 138.778 100.146 141.487C100.136 141.742 100.271 142.264 100.01 142.475C98.3327 143.834 98.9919 138.683 99.0606 136.763C99.1032 135.573 100.65 117.867 102.587 117.867C104.646 117.867 105.639 128.54 105.639 130.253C105.639 131.238 105.895 133.983 104.622 131.379C103.512 129.11 102.744 126.682 102.587 124.239C102.582 124.155 102.508 121.64 102.621 123.195C102.933 127.487 103.198 131.749 103.198 136.049C103.198 137.894 103.151 138.136 100.756 138.136" stroke="#ADBAFE" stroke-opacity="0.2" stroke-linecap="round"/>
<path d="M82.8066 148.544C85.0685 148.154 88.1218 147.786 90.1108 146.409C90.624 146.054 91.0015 145.827 91.5716 145.622" stroke="#ADBAFE" stroke-opacity="0.2" stroke-linecap="round"/>
<path d="M88.65 150.005C90.6043 149.866 93.1042 149.551 94.7499 148.314C95.2967 147.903 95.9541 147.862 95.9541 147.083" stroke="#ADBAFE" stroke-opacity="0.2" stroke-linecap="round"/>
<path d="M27.295 144.162C27.0674 141.937 25.7114 140.3 25.0631 138.372C24.6624 137.18 23.8819 135.827 22.9125 135.397" stroke="#ADBAFE" stroke-opacity="0.2" stroke-linecap="round"/>
<path d="M30.2166 144.162C29.0341 141.474 28.5361 138.321 25.4872 137.245C24.4907 136.893 23.1515 136.081 22.2916 135.455C21.7372 135.052 20.27 134.494 19.9908 133.936" stroke="#ADBAFE" stroke-opacity="0.2" stroke-linecap="round"/>
<path d="M43.3641 145.622C42.945 147.9 41.163 149.812 40.5236 151.974C40.1313 153.301 39.6485 153.672 38.9816 154.832C37.8794 156.749 35.8838 158.369 34.5991 160.231" stroke="#ADBAFE" stroke-opacity="0.2" stroke-linecap="round"/>
<path d="M33.1382 171.917C35.6823 171.319 37.8633 170.457 40.4424 170.457" stroke="#ADBAFE" stroke-opacity="0.2" stroke-linecap="round"/>
<path d="M53.7125 178.383C54.0056 179.707 57.463 180.345 58.4853 181.257C60.2785 182.857 63.7048 183.64 64.8756 185.755C66.034 187.848 61.1327 182.786 59.2543 181.311C58.1329 180.43 56.6993 178.849 55.6216 178.277C53.08 176.926 56.7763 178.593 57.5838 179.128C58.8646 179.977 60.3137 181.513 61.3225 182.694C62.8528 184.486 64.8832 185.503 66.5991 186.979C67.035 187.354 68.6452 187.964 67.7393 187.964C64.9991 187.964 63.7649 187.664 61.4551 186.154C59.8067 185.077 58.8151 183.435 57.5307 182.002C56.8966 181.295 55.2754 179.422 57.2656 180.698C61.2536 183.256 65.7252 187.782 70.7886 187.964C71.9346 188.005 73.0889 187.964 74.2356 187.964C76.7004 187.964 69.1096 188.399 66.8643 187.378C64.9729 186.519 63.4731 185.837 61.7202 184.717C59.9282 183.572 59.3378 181.375 57.7694 180.326C56.3872 179.401 55.4676 178.383 53.7125 178.383C53.336 178.383 51.1997 178.383 52.5988 178.383C54.6376 178.383 56.0859 178.334 57.7164 179.607C59.2658 180.817 60.0975 182.629 61.5876 183.626C64.0323 185.262 66.1792 186.913 68.7734 188.07C70.8039 188.976 72.6891 188.922 74.9516 188.922C75.2688 188.922 77.9544 189.176 76.569 189.374C74.0728 189.732 72.5697 188.719 70.4174 187.485" stroke="#ADBAFE" stroke-opacity="0.2" stroke-linecap="round"/>
<path d="M15.79 186.387C15.9575 184.609 17.4394 183.521 18.0601 181.904C18.5802 180.549 18.2792 179.241 18.6672 177.93C18.7477 177.658 19.1159 181.114 19.1159 181.904C19.1159 182.674 19.4697 184.619 18.852 185.215C18.0578 185.982 16.9438 186.471 16.0012 187.049C15.4801 187.369 11.7993 188.64 12.8865 187.559C14.2999 186.153 15.2692 185.048 16.3707 183.381C17.2697 182.021 19.1237 180.677 19.5383 179.076C19.8306 177.948 20.3631 177.417 19.5911 176.3" stroke="#ADBAFE" stroke-opacity="0.2" stroke-linecap="round"/>
<path d="M27.295 225.437C30.8192 225.271 34.0836 224.507 37.6061 224.507C38.4968 224.507 39.7322 225.347 40.6122 225.617C41.2607 225.817 42.7571 226.267 41.2586 225.669" stroke="#ADBAFE" stroke-opacity="0.2" stroke-linecap="round"/>
<path d="M133.936 217.203C131.544 214.503 130.627 209.87 128.681 206.815C127.208 204.502 123.71 202.818 123.71 199.673" stroke="#ADBAFE" stroke-opacity="0.2" stroke-linecap="round"/>
<path d="M131.014 170.62C131.183 169.719 134.195 169.802 135.015 169.465C137.323 168.518 137.827 170.365 137.827 173.073C137.827 175.63 136.686 177.516 135.772 179.712C135.566 180.207 133.079 182.18 133.069 182.165C132.159 180.952 133.579 177.939 132.474 176.465C131.805 175.572 131.954 177.052 132.555 177.403C132.745 177.514 135.25 177.876 135.177 177.619C134.474 175.116 130.579 178.42 132.204 179.568C133.736 180.65 135.394 176.787 135.394 175.166C135.394 170.611 131.014 170.908 131.014 175.815C131.014 176.46 131.423 185.282 132.961 183.32C135.105 180.582 139.971 173.803 139.773 169.321C139.722 168.17 136.7 168.611 135.88 168.672C134.552 168.77 133.447 173.403 133.447 174.877C133.447 177.85 132.885 183.331 135.015 178.052C137.287 172.422 137.091 171.618 134.42 166.074" stroke="#ADBAFE" stroke-opacity="0.2" stroke-linecap="round"/>
<path d="M126.632 155.848C128.76 157.204 131.035 157.727 133.084 159.405C135.009 160.983 137.217 162.168 139.14 163.716C139.929 164.351 141.512 165.783 141.849 166.7C142.341 168.041 143.425 167.7 144.101 168.87C145.619 171.502 146.885 174.041 147.692 177.009C149.008 181.85 148.434 186.836 150.248 191.629C152.534 197.668 158.662 199.593 163.457 203.175C166.156 205.191 166.96 207.476 168.813 209.987C173.321 216.097 179.222 223.824 179.222 231.811" stroke="#ADBAFE" stroke-linecap="round"/>
<path d="M142.701 250.802C148.217 257.033 153.272 266.948 159.671 271.945C163.86 275.216 165.01 274.445 168.714 278.164C173.412 282.881 179.858 285.031 184.074 290.601C186.547 293.868 190.351 296.092 192.745 299.183C195.34 302.533 195.532 308.866 199.682 311.247C205.021 314.31 205.648 324.88 208.353 330.151C214.809 342.734 218.51 361.825 218.51 376.168C218.51 391.365 227.429 407.591 227.429 423.181" stroke="#ADBAFE" stroke-linecap="round"/>
<path d="M49.2075 256.646C42.7153 260.929 35.1635 258.738 29.3159 263.947C26.4165 266.53 22.839 269.551 18.909 270.662C11.3141 272.81 5.21453 282.614 3.23288 290.024C-2.31297 310.76 4.052 333.98 5.40646 354.76C6.36707 369.497 4.32803 386.239 8.89737 399.807" stroke="#ADBAFE" stroke-linecap="round"/>
<path d="M141.24 385.199C141.24 392.461 141.744 399.66 144.378 406.235C145.962 410.188 147.083 415.807 147.083 420.259" stroke="#ADBAFE" stroke-linecap="round"/>
<path d="M152.927 353.061C152.927 362.262 142.701 368.889 142.701 377.895" stroke="#ADBAFE" stroke-linecap="round"/>
<path d="M58.5108 303.392C57.7723 312.85 55.9479 322.232 55.9479 331.722C55.9479 345.642 53.8827 361.22 56.0191 374.901C56.5267 378.151 56.1232 385.652 58.226 388.056C60.177 390.287 59.8695 397.209 62.355 398.346" stroke="#ADBAFE" stroke-linecap="round"/>
<path d="M54.7495 342.835C50.9592 342.835 48.6386 350.871 53.138 351.541C56.5148 352.044 57.9725 349.21 57.9725 346.581C57.9725 344.584 55.0571 345.332 53.4603 345.332" stroke="#ADBAFE" stroke-linecap="round"/>
<path d="M56.7622 376.434C54.2515 376.434 53.5899 380.512 53.5899 383.008C53.5899 384.559 55.9584 385.199 57.0265 385.199C58.4888 385.199 57.8196 381.168 57.8196 379.877C57.8196 377.728 57.5411 377.558 55.7048 377.686C54.7597 377.752 55.1761 381.188 55.1761 382.069C55.1761 383.967 57.8196 384.97 57.8196 382.695C57.8196 380.393 58.0922 378.938 55.7048 378.938" stroke="#ADBAFE" stroke-linecap="round"/>
<path d="M53.5899 347.23C53.6954 348.659 55.0508 349.443 55.0508 347.597C55.0508 345.85 53.9234 345.803 53.5899 344.296" stroke="#ADBAFE" stroke-linecap="round"/>
<path d="M138.318 160.278C140.589 160.278 143.463 159.769 144.65 162.095C145.295 163.361 145.698 164.753 145.988 166.133C146.156 166.93 147.175 167.274 147.412 168.175C147.626 168.991 147.497 169.959 147.497 170.799C147.497 173.21 147.343 175.663 147.964 177.956C148.647 180.482 149.392 186.526 145.967 186.526" stroke="#ADBAFE" stroke-linecap="round"/>
<path d="M34.5991 167.574C37.3098 167.574 40.0426 167.485 42.7515 167.574C44.9154 167.645 46.7414 170.631 47.7466 171.917" stroke="#ADBAFE" stroke-linecap="round"/>
<path d="M17.0692 145.622C15.9757 146.091 15.5443 146.784 14.1475 147.083" stroke="#ADBAFE" stroke-linecap="round"/>
<path d="M18.53 145.622C18.4734 146.199 17.5223 146.998 17.0692 147.083" stroke="#ADBAFE" stroke-linecap="round"/>
<path d="M21.4443 145.622C21.4443 146.11 21.6416 147.083 19.9908 147.083" stroke="#ADBAFE" stroke-linecap="round"/>
<path d="M22.9125 145.622V147.083" stroke="#ADBAFE" stroke-linecap="round"/>
<path d="M11.2257 144.162C10.2815 144.686 9.25169 145.149 8.30408 145.622" stroke="#ADBAFE" stroke-linecap="round"/>
<path d="M28.7558 199.673C28.1127 201.201 27.6127 202.941 27.5871 204.533C27.5834 204.764 27.7881 205.964 27.295 205.337" stroke="white" stroke-linecap="round"/>
<path d="M22.9125 198.212C24.2396 199.116 25.3483 200.193 26.7836 200.952C27.8736 201.528 28.98 201.283 30.1061 201.593C30.9943 201.837 31.8827 202.367 32.8076 202.388C34.1967 202.42 35.5893 202.388 36.9788 202.388C38.2199 202.388 39.4697 202.347 40.7102 202.394C42.172 202.45 43.5966 202.647 45.0729 202.582C46.4862 202.519 47.9014 201.863 49.2493 201.444C50.2504 201.133 51.2796 200.931 52.2872 200.643C53.1952 200.383 54.1217 200.399 55.0508 200.3" stroke="white" stroke-linecap="round"/>
<path d="M33.1382 199.673C33.1382 200.27 33.1382 205.793 33.1382 205.506" stroke="white" stroke-linecap="round"/>
<path d="M40.4424 201.134C40.4424 202.207 40.4424 203.28 40.4424 204.352C40.4424 204.643 40.4424 205.312 40.4424 205.517" stroke="white" stroke-linecap="round"/>
<path d="M26.5477 198.988C26.621 199.053 26.6981 199.098 26.7986 199.098C26.9129 199.098 26.2162 198.852 26.145 198.816C25.9678 198.726 25.2081 198.128 24.9711 198.222C24.9561 198.228 25.9063 199.03 26.0211 199.098C26.0815 199.134 26.6178 199.343 26.3556 199.307C25.9512 199.252 25.5462 199.187 25.1477 199.098C25.0392 199.074 24.7268 198.975 24.838 198.975C25.0733 198.977 25.7365 199.084 25.9034 199.111C26.4236 199.195 27.975 199.49 27.4645 199.36C27.0398 199.252 26.6284 199.11 26.2348 198.917C26.2323 198.916 25.7063 198.555 25.8446 198.773C26.2918 199.477 26.7678 200.165 27.2167 200.869C27.2758 200.962 27.9335 201.873 27.9043 201.883C27.7302 201.944 27.3882 201.862 27.2291 201.84C26.7544 201.776 26.2875 201.684 25.8229 201.57C25.2311 201.424 26.4304 202.248 26.5167 202.326C26.7166 202.507 26.896 202.702 27.0866 202.891C27.1229 202.928 27.2472 202.996 27.2632 203.051C27.2639 203.054 26.7015 202.839 26.6158 202.818C26.3805 202.758 27.1793 203.111 27.2105 203.128C27.8527 203.482 28.282 203.956 28.8335 204.404C28.9308 204.483 29.1325 204.596 29.2671 204.576C29.3831 204.558 29.2795 204.369 29.2671 204.342C28.877 203.5 28.2789 202.739 27.7835 201.957C27.6776 201.79 27.5698 201.624 27.4707 201.453C27.4092 201.347 27.2412 201.139 27.3592 201.103C27.5346 201.049 27.7181 201.188 27.8857 201.262C28.2615 201.429 28.6901 201.669 29.0441 201.865C30.4499 202.641 31.8394 203.386 33.1543 204.308C33.2368 204.366 33.321 204.422 33.4051 204.478C33.5132 204.549 33.497 204.522 33.3308 204.441C32.2279 203.901 31.0689 203.454 29.9114 203.045C29.4151 202.87 29.2439 202.814 29.6512 203.113C30.1429 203.473 30.6072 203.867 31.0883 204.241C31.2851 204.394 31.4792 204.539 31.6954 204.662C31.7876 204.715 31.4051 204.687 31.3981 204.687C31.0786 204.687 30.4985 204.573 30.2087 204.742C30.0177 204.853 30.7884 204.909 30.6237 205.043C30.2681 205.332 29.6455 205.43 29.199 205.403C28.983 205.389 29.6127 205.274 29.8246 205.231C30.4835 205.096 31.1377 204.96 31.8069 204.886C32.9408 204.761 34.0655 204.637 35.2078 204.631C36.1498 204.626 37.1731 204.736 38.1069 204.573C38.1875 204.559 38.3848 204.198 38.4476 204.146C39.384 203.357 40.5094 202.802 41.6502 202.369C42.3054 202.12 43.0674 201.852 43.7812 201.809C44.8156 201.748 41.7453 202.196 40.7334 202.418C39.7631 202.631 38.8268 203.056 37.8467 203.211C36.5978 203.409 35.3279 203.101 34.0928 202.984C34.0207 202.977 33.8035 202.971 33.8759 202.971C34.6734 202.971 35.487 203.088 36.2764 203.174C37.1994 203.275 38.1204 203.391 39.0423 203.5C39.3061 203.531 40.0998 203.556 39.8352 203.58C38.5631 203.695 37.195 203.497 35.9326 203.356C34.866 203.236 33.8287 203.082 32.7547 203.082C32.6577 203.082 32.3666 203.086 32.4636 203.082C32.9885 203.059 33.5124 203.034 34.037 203.002C34.9433 202.947 35.8486 202.892 36.7564 202.87C37.2045 202.859 37.3701 202.861 37.7693 202.861C37.8396 202.861 37.9426 202.908 37.9799 202.848C38.0864 202.679 35.6261 201.213 35.3379 201.084C34.7265 200.81 34.0546 200.856 33.4051 200.912C33.2023 200.929 32.9984 200.924 32.795 200.924C32.1925 200.924 33.9984 200.839 34.6007 200.85C35.1352 200.861 35.6837 200.877 36.2113 200.973C36.2445 200.979 36.3377 201.018 36.3042 201.013C36.1904 200.998 35.7161 200.897 35.6848 200.89C34.4511 200.639 33.2101 200.291 31.9494 200.217C31.4404 200.188 30.9263 200.205 30.4162 200.205C30.3388 200.205 30.2614 200.205 30.1839 200.205C30.1488 200.205 30.0462 200.192 30.0786 200.205C30.3071 200.299 30.5472 200.364 30.7786 200.451C33.4339 201.451 35.9357 202.845 38.6706 203.632C40.4806 204.153 42.3864 204.284 44.2644 204.299C44.3718 204.3 44.683 204.293 44.5834 204.253C44.1728 204.088 43.7156 204.004 43.2856 203.903C42.4332 203.703 41.9313 204.179 41.2414 204.588C40.477 205.042 39.8166 205.35 38.9184 205.418C37.9853 205.489 37.0629 205.406 36.1308 205.406C35.4903 205.406 34.8698 205.517 34.2259 205.517C34.0308 205.517 33.8357 205.517 33.6405 205.517C33.2071 205.517 34.0309 205.413 34.0928 205.406C34.9649 205.309 35.8175 205.295 36.6945 205.295C37.4168 205.295 38.1345 205.406 38.8564 205.406C39.4533 205.406 40.0547 205.387 40.6405 205.258C41.0682 205.164 41.4718 204.978 41.8918 204.859C42.3801 204.72 42.8919 204.707 43.3847 204.597C43.7572 204.514 44.4014 204.509 44.7228 204.296C45.1034 204.044 45.5893 204.016 46.0174 203.887C46.53 203.734 46.868 203.204 47.3431 202.971C47.9093 202.694 48.5432 202.571 49.1086 202.274C49.5851 202.023 50.0509 201.716 50.5457 201.505C50.8837 201.361 50.4298 201.429 50.2979 201.447C49.3582 201.573 48.5389 202.165 47.6342 202.437C46.1297 202.889 44.6724 203.382 43.0812 203.349C42.8062 203.344 42.5359 203.306 42.2635 203.273C42.0829 203.25 41.3089 203.25 41.2104 203.119C41.1702 203.065 41.2865 203.001 41.3467 202.971C41.6403 202.827 41.9501 202.716 42.2573 202.603C43.1358 202.277 45.0307 201.634 45.8935 201.355C46.6503 201.11 47.5413 200.756 48.3652 200.703C48.693 200.682 48.1384 200.703 48.1019 200.703C47.5702 200.703 47.0794 200.76 46.5626 200.881C45.9327 201.029 45.2134 201.112 44.5648 201.142C43.4485 201.195 42.3219 201.059 41.2197 200.9C40.0297 200.727 38.816 200.711 37.6175 200.635C36.4532 200.562 32.9583 200.371 34.1237 200.426C34.9511 200.465 35.7838 200.445 36.6047 200.568C37.0601 200.636 37.5035 200.703 37.9644 200.703C38.8777 200.703 39.8005 200.444 40.7055 200.316C41.1801 200.248 41.6418 200.11 42.1148 200.033C42.4702 199.975 42.8318 200.021 43.1834 199.956C43.5854 199.882 44.0232 199.928 44.4316 199.928C44.8022 199.928 45.1588 200.085 45.5219 200.15C45.8952 200.216 46.2655 200.205 46.6431 200.205C48.7255 200.205 42.4772 200.142 40.3958 200.208C39.5013 200.236 38.6144 200.371 37.7166 200.371C36.7085 200.371 35.7032 200.329 34.6998 200.248C32.8015 200.094 31.0047 199.334 29.0937 199.267C28.4665 199.246 27.8691 199.182 27.2477 199.068C26.8711 198.998 26.3946 198.947 26.049 198.766C25.7587 198.615 25.4049 198.561 25.0919 198.459C24.8561 198.383 24.6167 198.303 24.3734 198.268" stroke="#EDEAE2" stroke-linecap="round"/>
<path d="M33.1383 183.604C32.2941 184.87 31.6361 189.447 30.2166 189.447" stroke="#ADBAFE" stroke-opacity="0.2" stroke-linecap="round"/>
<path d="M37.5208 185.065C37.4369 186.297 36.9583 190.309 36.06 190.908" stroke="#ADBAFE" stroke-opacity="0.2" stroke-linecap="round"/>
<path d="M30.2166 217.203C31.7262 217.203 33.2359 217.203 34.7455 217.203C34.8094 217.203 37.2589 217.23 36.926 217.487C36.2655 217.999 27.7149 217.282 32.6068 217.913C33.485 218.027 33.883 218.664 34.8084 218.664C36.1158 218.664 37.3543 218.299 38.6453 218.299C40.3778 218.299 34.917 218.145 33.6133 217.041C32.3323 215.956 31.9796 216.07 30.9714 214.281" stroke="#ADBAFE" stroke-opacity="0.2" stroke-linecap="round"/>
<path d="M74.0416 231.811C74.9569 230.221 76.9113 228.978 78.0905 227.545C80.0511 225.162 81.9569 222.762 83.978 220.427C87.3911 216.485 89.7038 212.115 91.89 207.463C93.3073 204.448 93.0055 201.503 93.0055 198.212" stroke="#ADBAFE" stroke-opacity="0.2" stroke-linecap="round"/>
<path d="M100.337 168.996C99.3607 172.158 97.7849 175.161 95.501 177.73C94.4028 178.966 93.0325 180.5 93.0325 182.143" stroke="#ADBAFE" stroke-opacity="0.2" stroke-linecap="round"/>
<path d="M109.102 164.613C108.675 168.17 107.933 172.969 105.725 176.035C104.792 177.331 104.805 178.864 103.258 179.222" stroke="#ADBAFE" stroke-opacity="0.2" stroke-linecap="round"/>
<path d="M112.023 164.613C111.401 167.123 109.216 169.389 108.866 172.002C108.583 174.106 108.044 173.391 106.18 172.524" stroke="#ADBAFE" stroke-opacity="0.2" stroke-linecap="round"/>
<path d="M117.867 161.692C117.545 165.483 115.631 169.095 114.519 172.725C114.213 173.724 114.467 175.092 113.842 175.973C112.718 177.559 110.917 172.895 110.562 172.173" stroke="#ADBAFE" stroke-opacity="0.2" stroke-linecap="round"/>
<path d="M131.014 166.074C131.014 169.779 129.707 172.802 128.666 176.3C127.7 179.548 127.542 183.157 123.71 183.604" stroke="#ADBAFE" stroke-opacity="0.2" stroke-linecap="round"/>
<path d="M129.971 192.369C129.787 193.448 128.667 194.395 128.301 195.475C127.935 196.554 127.575 197.472 127.455 198.63C127.191 201.173 126.632 203.639 126.632 206.22C126.632 207.403 126.746 208.358 127.153 209.474C127.385 210.107 127.264 211.162 127.582 211.698C128.342 212.977 130.43 214.282 131.849 214.282C135.954 214.282 136.857 207.884 136.857 204.493C136.857 201.816 136.807 200.675 134.562 199.301" stroke="#ADBAFE" stroke-opacity="0.87" stroke-linecap="round"/>
<path d="M132.475 193.83C130.961 193.381 129.689 192.369 128.092 192.369" stroke="#ADBAFE" stroke-opacity="0.87" stroke-linecap="round"/>
<path d="M130.709 192.369C128.842 192.477 126.508 193.952 126.508 195.478C126.508 197.015 126.234 200.031 125.554 201.419C124.823 202.911 125.363 205.606 125.363 207.243C125.363 209.154 125.619 210.642 126.148 212.358C126.708 214.175 129.054 215.742 130.942 215.742C132.98 215.742 133.501 215.795 134.613 214.05C135.142 213.22 134.898 211.759 135.461 211.138C135.908 210.646 136.07 210.312 136.352 209.722C137.056 208.255 136.819 206.242 136.819 204.587C136.819 203.465 136.819 202.344 136.819 201.222C136.819 199.558 135.891 199.78 135.292 198.389" stroke="#ADBAFE" stroke-opacity="0.87" stroke-linecap="round"/>
<path d="M132.475 215.742C129.916 215.742 128.382 213.988 126.632 212.821" stroke="#ADBAFE" stroke-opacity="0.87" stroke-linecap="round"/>
<path d="M65.2766 259.567C65.4398 264.043 65.8466 269.447 69.6591 272.715" stroke="#ADBAFE" stroke-opacity="0.2" stroke-linecap="round"/>
<path d="M55.0508 258.106C55.0508 261.186 55.4749 264.001 56.5116 266.871" stroke="#ADBAFE" stroke-opacity="0.2" stroke-linecap="round"/>
<path d="M49.6757 246.51C51.201 245.198 54.4255 244.592 56.4168 245.19C58.9164 245.941 50.5811 252.221 50.0342 252.543C48.7335 253.309 45.8922 254.807 49.5322 253.222C53.0774 251.678 56.1285 249.641 59.3571 247.566C59.9818 247.164 63.449 244.712 62.2973 245.228C59.1891 246.621 55.4483 249.904 51.9705 249.904C51.3421 249.904 50.1092 250.063 51.5044 249.489C54.6359 248.2 57.8363 247.782 61.1499 247.339C68.6994 246.331 58.845 245.153 56.1299 245.153C54.7873 245.153 50.9146 244.83 49.8191 245.982C47.4173 248.508 54.0895 253.781 55.1259 255.182C57.5349 258.439 55.2621 253.767 54.4805 253.297C52.5681 252.148 57.9733 256.118 58.4965 256.615C59.8405 257.892 63.1492 262.442 62.1181 260.876C60.5307 258.465 58.8579 255.316 58.7116 252.317C58.6103 250.24 58.7116 250.199 58.7116 252.279C58.7116 254.091 59.3016 255.393 59.8591 257.068C60.2427 258.22 59.5147 254.652 59.3212 253.448C59.0721 251.898 59.0444 247.877 57.7435 246.661C55.8287 244.871 57.1934 263.592 59.8591 255.182C60.2897 253.824 62.008 249.934 63.7316 253.071C65.8689 256.961 65.1659 262.519 65.1659 266.871" stroke="#ADBAFE" stroke-opacity="0.2" stroke-linecap="round"/>
<path d="M69.6591 272.715C72.7783 272.386 74.6931 268.423 77.7208 267.872C79.9729 267.463 75.7625 269.565 75.1237 269.712C74.1079 269.946 72.9175 269.793 71.8774 269.793C69.9655 269.793 73.4549 269.799 74.5827 269.306C78.2313 267.712 81.9338 265.088 85.1331 262.705C86.0882 261.994 87.1426 261 88.163 260.433C89.8785 259.48 89.651 258.791 90.1108 256.646" stroke="#ADBAFE" stroke-opacity="0.2" stroke-linecap="round"/>
<path d="M62.355 250.802C63.0544 253.307 65.0068 255.477 66.3028 257.656C68.2573 260.943 69.8227 264.47 71.7707 267.759C72.2173 268.512 73.0549 271.12 72.2352 268.946" stroke="#ADBAFE" stroke-opacity="0.2" stroke-linecap="round"/>
<path d="M60.8941 249.341C60.8941 253.724 60.8941 258.107 60.8941 262.49C60.8941 266.677 59.0991 270.113 57.9725 274.176" stroke="#ADBAFE" stroke-opacity="0.2" stroke-linecap="round"/>
<path d="M22.9125 204.056V206.977" stroke="#ADBAFE" stroke-opacity="0.2" stroke-linecap="round"/>
<path d="M25.611 207.127C25.5477 206.857 24.6941 204.692 25.3664 205.275C25.9655 205.794 26.3975 206.575 26.8576 207.231C27.0937 207.567 27.5237 207.993 27.6388 208.42C27.9349 209.52 26.2156 206.691 25.7688 205.654C25.4858 204.997 24.9743 204.124 24.8929 203.413C24.7834 202.456 22.9125 202.061 22.9125 201.233C22.9125 200.765 23.9165 202.106 23.9619 202.189C24.5006 203.176 24.9676 204.342 25.319 205.43C25.6745 206.53 26.2942 207.592 26.5105 208.73C26.6462 209.445 26.5538 209.984 26.9444 210.6C27.1773 210.968 27.3937 211.448 26.7787 210.868C25.7435 209.891 24.5983 209.007 24.0802 207.593C23.9167 207.146 24.2611 207.108 24.601 207.196C26.3384 207.649 27.5113 209.533 28.5619 210.971C29.1073 211.717 29.4163 212.68 30.0769 213.315C30.6145 213.832 31.0861 214.036 30.6765 212.979C30.1114 211.52 29.2984 210.242 28.8223 208.722C28.7181 208.389 28.393 207.603 28.7434 208.368C29.2476 209.47 30.1856 210.257 30.8659 211.212C31.2229 211.714 30.6675 210.478 30.6134 210.385C30.3793 209.981 29.9612 209.505 30.0137 208.989C30.0577 208.556 31.4104 209.982 31.5129 210.083C32.3867 210.944 33.1984 211.879 33.7695 213.013C34.2541 213.976 33.1241 211.504 33.0199 211.264C32.5993 210.296 32.2673 209.223 32.152 208.153C32.1186 207.843 32.1144 207.439 32.1757 208.075C32.2712 209.067 32.2861 210.044 32.2861 211.04C32.2861 211.775 32.4415 212.766 32.2861 213.487C32.1922 213.924 28.6009 213.643 28.0333 213.643C27.4941 213.643 26.9549 213.643 26.4158 213.643C24.9335 213.643 29.3705 213.37 30.8422 213.177C32.69 212.935 34.6546 212.803 36.4522 212.246C37.2491 212 38.0334 211.949 38.8193 211.747C40.1392 211.407 36.1149 211.967 34.7637 212.091C34.6872 212.098 32.8317 212.089 32.8543 212.557C32.8769 213.027 34.49 213.489 34.811 213.617C35.3583 213.834 35.9045 213.798 36.4759 213.798C36.7641 213.798 37.9382 213.798 37.7305 213.798C35.8815 213.798 34.0325 213.798 32.1836 213.798C31.5132 213.798 33.7158 214.143 33.8326 214.16C35.9176 214.455 38.1417 214.203 40.1449 213.522C40.7588 213.313 41.2688 212.956 41.8492 212.677C42.2623 212.479 40.9919 212.994 40.5867 213.212C40.2299 213.403 39.8555 213.567 39.4584 213.634C38.6817 213.764 39.69 211.113 39.7977 210.781C39.9338 210.362 40.1437 209.653 40.5789 209.463C41.0575 209.254 39.752 210.142 39.3874 210.54C38.7606 211.225 38.1625 211.626 37.257 211.626C36.9156 211.626 36.831 211.534 36.831 211.161C36.831 210.53 37.3589 210.325 37.7936 210.04C37.8504 210.003 38.3612 209.688 38.3538 209.678C37.864 209.054 35.6429 209.454 35.0083 209.454C34.1956 209.454 33.3829 209.454 32.5702 209.454C32.4789 209.454 32.1198 209.454 32.6018 209.454C33.7113 209.454 34.8222 209.473 35.9315 209.446C36.6842 209.427 37.4271 209.299 38.1802 209.299C38.698 209.299 36.9355 208.729 36.7284 208.705C36.2586 208.65 35.2605 208.487 34.8032 208.687C34.2986 208.908 35.8852 208.816 36.4286 208.825C37.62 208.846 38.8139 208.807 40.0029 208.911C40.0653 208.917 41.3802 209.028 40.6656 209.11C39.1842 209.279 37.6726 209.277 36.184 209.299C35.9047 209.303 33.66 209.388 33.7064 209.92C33.7885 210.861 35.7093 211.781 36.3339 212.186C36.4619 212.269 37.7275 213.141 37.5174 212.376C37.2566 211.426 36.0629 210.695 35.2056 210.695C34.186 210.695 34.5647 210.602 35.3002 211.049C36.9526 212.051 38.4926 212.842 40.3185 213.298C40.4005 213.318 40.6282 213.365 40.571 213.298C39.82 212.414 39.0003 211.582 38.2197 210.73C37.6577 210.116 36.8633 209.719 37.8725 209.833C39.2026 209.985 40.5838 210.188 41.8176 209.515C42.7899 208.984 43.641 208.226 44.6108 207.696C45.5156 207.202 43.8415 208.788 43.7823 208.851C42.7569 209.935 41.9862 211.107 41.0917 212.298C40.7398 212.767 40.2807 213.157 39.8766 213.574C39.7498 213.704 39.0465 213.912 39.3243 213.66C40.6517 212.456 41.9117 211.086 43.2852 209.954C43.8644 209.477 45.0028 208.311 45.747 208.213C45.9492 208.187 45.7129 208.291 45.605 208.386C44.486 209.363 43.4324 210.462 42.4331 211.583C41.8691 212.215 41.4079 212.906 40.7998 213.487C39.6604 214.576 41.9059 211.978 41.9439 211.936C42.7239 211.084 43.4987 209.855 44.4451 209.204C45.0815 208.767 45.4078 207.937 46.0626 207.558C46.5541 207.274 44.2541 208.085 44.0427 208.144C43.1658 208.391 42.2693 208.652 41.4073 208.954C40.2473 209.362 42.3617 207.993 42.6382 207.774C42.9535 207.523 43.3416 207.593 43.7113 207.593C43.9201 207.593 43.495 207.991 43.3405 208.144C42.594 208.885 41.8267 209.603 41.147 210.419C40.6094 211.065 40.3504 211.882 39.8451 212.522C39.4387 213.037 39.8457 212.909 40.208 212.557C41.1174 211.673 41.999 210.799 43.1116 210.23C43.5298 210.016 44.0763 209.514 44.5319 209.454C44.7125 209.431 44.9106 208.991 44.9106 209.359C44.9106 210.554 44.1072 211.435 43.3878 212.221C43.0431 212.597 42.7137 213.038 42.2989 213.324C41.431 213.922 43.0327 212.005 43.1037 211.928C43.9437 211.01 44.9286 210.218 45.6681 209.196C46.1869 208.479 46.6606 207.766 47.2619 207.127C47.8115 206.544 48.5022 206.182 49.2187 205.921C49.7779 205.717 50.2976 205.229 50.8205 205.102C51.075 205.04 51.025 204.7 51.3175 204.654C51.5608 204.616 51.4788 204.661 51.3175 204.801C50.7407 205.3 50.2627 205.919 49.7158 206.455C49.0982 207.061 48.3747 207.489 47.688 207.989C47.3146 208.261 47.011 208.79 46.5518 208.834C46.363 208.852 45.8494 209.369 45.9364 209.006C46.4151 207.01 48.6033 205.352 50.0078 204.094C50.5492 203.609 50.9757 203.249 51.6726 203.249C52.2582 203.249 50.7347 204.143 50.6627 204.189C49.5736 204.874 48.3708 205.339 47.3014 206.033C46.5745 206.505 45.9601 206.89 45.1473 207.093C43.123 207.598 48.8275 204.908 50.8283 204.301C51.4371 204.116 51.9714 203.91 52.5958 203.749C52.9493 203.658 53.59 203.932 53.59 203.405" stroke="#ADBAFE" stroke-opacity="0.2" stroke-linecap="round"/>
<path d="M30.5384 193.926C31.2845 194.023 33.7582 195.438 31.2878 194.175C30.2621 193.651 29.2668 193.651 28.2248 193.274C27.4812 193.004 26.7743 194.209 26.2533 194.655C25.7661 195.071 23.9989 195.646 24.5752 195.441C26.4899 194.76 28.2575 193.708 30.2125 193.197C31.0065 192.989 30.8316 192.463 30.8316 193.887C30.8316 194.767 30.5666 196.349 30.9783 197.167C31.4095 198.024 30.0954 195.858 29.9192 195.518C29.5917 194.884 29.2092 194.29 28.7787 193.753C28.2865 193.139 28.9253 194.498 29.0068 194.693C29.4315 195.708 29.6726 196.797 29.9844 197.858C30.2841 198.877 28.5306 197.693 28.2737 197.436C28.1788 197.341 26.267 195.623 26.3185 195.441C26.3748 195.242 28.6964 196.155 28.9254 196.227C29.446 196.393 29.6715 196.29 29.0394 196.036C27.7459 195.514 26.1204 195.479 24.7544 195.479C24.2248 195.479 23.7504 195.328 23.2392 195.307C22.4811 195.275 23.2134 194.978 23.7117 194.712C25.0011 194.025 26.3325 193.445 27.6057 192.717C28.3921 192.268 29.592 192.517 30.3591 192.89C31.5677 193.477 32.7349 193.58 34.025 193.58C35.3556 193.58 36.6862 193.58 38.0168 193.58C38.832 193.58 39.3968 192.595 40.2163 192.545C40.5186 192.526 41.4141 192.344 41.1124 192.372C39.8447 192.491 38.7544 193.134 37.6095 193.715C36.0371 194.512 34.4821 195.386 32.9171 196.17C32.8679 196.194 31.6519 196.561 31.744 196.649C32.1691 197.059 33.4609 196.954 33.9599 196.995C34.7601 197.059 35.5696 197.191 36.3712 197.206C37.104 197.219 37.8379 197.206 38.5707 197.206C38.8466 197.206 38.9886 197.15 38.6033 196.918C37.4837 196.243 36.1613 195.997 34.9211 195.863C34.6137 195.83 33.3614 195.511 33.4711 196.208C33.5773 196.884 35.8597 197.85 36.4038 197.896C37.759 198.01 33.6891 197.706 32.3306 197.723C30.9473 197.741 33.7001 198.012 33.9599 198.03C34.5202 198.07 35.0814 198.218 35.638 198.241C39.5433 198.406 43.326 197.107 47.2222 197.033C47.8665 197.021 47.7077 197.048 47.1245 196.995C46.1895 196.909 45.2605 196.846 44.3221 196.86C43.0546 196.88 41.6149 197.429 40.363 197.723C39.9124 197.83 38.5419 197.827 38.196 198.28C37.7552 198.856 40.1957 198.759 40.363 198.759C42.5509 198.759 44.5841 198.069 46.766 198.069C49.1182 198.069 51.3459 199.179 53.6742 199.277C54.0482 199.293 54.5395 199.409 54.8799 199.584C55.7319 200.023 53.1672 198.715 52.273 198.414C50.2285 197.726 48.2 196.841 46.3098 195.729C45.0719 195 43.6378 194.95 42.4159 194.271C41.7537 193.903 40.964 193.926 40.2489 193.926C39.2164 193.926 41.0374 193.819 41.3894 193.926C42.434 194.241 42.6659 195.195 43.4423 195.786C43.6134 195.917 43.6551 196.102 43.3608 196.131C42.0769 196.261 40.6251 195.71 39.4017 195.307C38.7237 195.083 38.0255 194.674 37.3162 194.616C37.0001 194.591 38.0296 194.716 38.082 194.731C38.2457 194.779 40.465 195.805 40.086 195.192C39.291 193.905 39.158 193.485 40.7377 193.274C41.0832 193.227 42.5369 193.415 42.3507 193.408C42.1445 193.4 42.0101 193.249 41.8293 193.235C41.7148 193.226 42.7874 193.597 42.9209 193.657C43.7604 194.034 44.5452 194.562 45.2671 195.192C45.4619 195.362 45.4603 195.545 45.6418 195.652" stroke="#ADBAFE" stroke-opacity="0.2" stroke-linecap="round"/>
</svg>
